<svg width="180" height="33" viewBox="0 0 180 33" fill="none" xmlns="http://www.w3.org/2000/svg">
<path d="M177.631 31.9944C177.904 32.4745 178.514 32.6423 178.994 32.3692C179.474 32.0962 179.642 31.4856 179.369 31.0056L177.631 31.9944ZM4.31623 0.551317C3.79228 0.376669 3.22596 0.659829 3.05132 1.18377L0.205267 9.72192C0.0306191 10.2459 0.313779 10.8122 0.837722 10.9868C1.36167 11.1615 1.92799 10.8783 2.10263 10.3544L4.63246 2.76491L12.2219 5.29473C12.7459 5.46938 13.3122 5.18622 13.4868 4.66228C13.6615 4.13833 13.3783 3.57201 12.8544 3.39737L4.31623 0.551317ZM179.369 31.0056C175.393 24.0154 170.188 19.458 164.046 16.726C157.923 14.0025 150.929 13.1187 143.397 13.3678C128.378 13.8645 110.904 18.8915 93.447 23.2169C75.9018 27.5641 58.3408 31.2151 42.8573 29.1727C27.4753 27.1437 14.114 19.4919 4.89443 1.05279L3.10557 1.94721C12.636 21.0081 26.5872 29.0438 42.5958 31.1555C58.503 33.2538 76.4107 29.4985 93.928 25.1582C111.533 20.7962 128.716 15.8544 143.463 15.3667C150.813 15.1236 157.479 15.9937 163.233 18.5534C168.969 21.1046 173.857 25.3597 177.631 31.9944L179.369 31.0056Z" fill="#7D298A"/>
</svg>
