<svg width="108" height="129" viewBox="0 0 108 129" fill="none" xmlns="http://www.w3.org/2000/svg">
<path d="M105.537 128.269C105.685 128.801 106.237 129.112 106.769 128.963C107.301 128.815 107.612 128.263 107.463 127.731L105.537 128.269ZM1.99975 81L1.01864 81.1935L1.99975 81ZM51.2047 0.0212094C50.6641 -0.0919334 50.1341 0.254566 50.021 0.795137L48.1772 9.60425C48.0641 10.1448 48.4106 10.6748 48.9512 10.7879C49.4917 10.901 50.0217 10.5546 50.1348 10.014L51.7737 2.18365L59.604 3.82256C60.1446 3.9357 60.6745 3.5892 60.7877 3.04863C60.9008 2.50806 60.5543 1.97812 60.0138 1.86498L51.2047 0.0212094ZM107.463 127.731C104.385 116.701 95.7414 106.01 84.7694 96.7589C73.778 87.4918 60.3461 79.5824 47.5152 74.1418C34.7139 68.7139 22.3823 65.6887 13.6151 66.3229C9.23213 66.64 5.57578 67.8844 3.25529 70.383C0.89713 72.9221 0.103156 76.5507 1.01864 81.1935L2.98086 80.8065C2.14634 76.5743 2.93048 73.6717 4.72076 71.744C6.54871 69.7758 9.61112 68.6178 13.7594 68.3177C22.0547 67.7176 34.0356 70.5986 46.7344 75.9832C59.4034 81.3551 72.6591 89.1644 83.4802 98.288C94.3208 107.428 102.615 117.799 105.537 128.269L107.463 127.731ZM1.01864 81.1935C1.72157 84.7583 3.7214 87.064 6.6361 88.1032C9.4721 89.1143 13.0407 88.8802 16.8844 87.7417C24.5895 85.4595 33.8862 79.4019 41.8988 70.9389C57.9199 54.0173 69.1964 27.0028 51.8368 0.452751L50.1628 1.54725C66.8031 26.9972 56.1434 52.9846 40.4464 69.5639C32.5999 77.8515 23.5921 83.6691 16.3164 85.824C12.6698 86.9041 9.579 87.0291 7.30772 86.2193C5.11514 85.4376 3.55981 83.7427 2.98086 80.8065L1.01864 81.1935Z" fill="#7D298A"/>
</svg>
