<svg width="155" height="154" viewBox="0 0 155 154" fill="none" xmlns="http://www.w3.org/2000/svg">
<path d="M126.05 0.16496C125.589 -0.138901 124.969 -0.0113689 124.665 0.449811C124.361 0.910991 124.489 1.53118 124.95 1.83504L126.05 0.16496ZM7.8552 153.264C8.27727 153.62 8.90818 153.567 9.26437 153.145L15.0688 146.267C15.425 145.845 15.3716 145.214 14.9495 144.858C14.5274 144.501 13.8965 144.555 13.5403 144.977L8.38084 151.091L2.26696 145.931C1.84488 145.575 1.21397 145.629 0.857785 146.051C0.501596 146.473 0.555007 147.104 0.977082 147.46L7.8552 153.264ZM124.95 1.83504C138.292 10.6258 146.213 18.0242 150.006 24.3871C151.893 27.5522 152.737 30.4257 152.75 33.0675C152.764 35.7032 151.951 38.1868 150.396 40.5802C147.255 45.4139 141.131 49.8152 132.928 54.1143C124.754 58.3985 114.669 62.5054 103.757 66.8201C81.9889 75.4276 56.9539 84.847 37.8839 98.0529C18.784 111.28 5.46088 128.454 7.5037 152.584L9.49657 152.416C7.53933 129.296 20.2162 112.72 39.0225 99.6971C57.8588 86.653 82.6363 77.3224 104.493 68.6799C115.394 64.3696 125.574 60.2265 133.857 55.8857C142.111 51.5598 148.635 46.9611 152.073 41.6698C153.807 39.0007 154.766 36.1405 154.75 33.0575C154.735 29.9806 153.749 26.7603 151.724 23.3629C147.693 16.6008 139.458 8.99923 126.05 0.16496L124.95 1.83504Z" fill="#7D298A"/>
</svg>
