<svg width="46" height="51" viewBox="0 0 46 51" fill="none" xmlns="http://www.w3.org/2000/svg">
<path fill-rule="evenodd" clip-rule="evenodd" d="M1.6724 41.9726C0.924682 43.5667 0.506152 45.2953 0.441842 47.0549C0.395247 48.3298 0.535303 49.6021 0.855384 50.8317H4.1215C3.67051 49.5432 3.48946 48.1756 3.58961 46.8141C3.68976 45.4526 4.06896 44.1263 4.70364 42.9176C5.33831 41.709 6.21488 40.6438 7.27882 39.7884C7.44043 39.6572 7.57436 39.4952 7.67282 39.3117C7.77127 39.1283 7.8323 38.9271 7.85235 38.7199C8.22238 34.9678 9.97469 31.4873 12.7685 28.9555C15.5623 26.4236 19.1979 25.0214 22.9683 25.0214C26.7386 25.0214 30.3742 26.4236 33.1681 28.9555C35.9619 31.4873 37.7142 34.9678 38.0842 38.7199C38.105 38.9276 38.1665 39.1291 38.2654 39.313C38.3643 39.4968 38.4985 39.6592 38.6604 39.791C39.8131 40.7224 40.7425 41.9004 41.3802 43.2382C42.0178 44.5761 42.3475 46.0398 42.3451 47.5218C42.3445 48.6555 42.1502 49.7743 41.7766 50.8317H45.0625C45.3433 49.7568 45.4877 48.6448 45.4877 47.5218C45.4918 45.6814 45.1064 43.8608 44.3567 42.1799C43.6069 40.4991 42.5099 38.9959 41.1378 37.7693C40.8744 35.7879 40.2888 33.863 39.4041 32.0707C41.8845 27.1606 43.6954 21.9402 44.7884 16.5488C45.5767 12.4582 46.0952 6.88271 44.084 3.55416C43.6229 2.73439 42.948 2.05514 42.1312 1.58885C41.3144 1.12256 40.3863 0.886735 39.446 0.906517C32.9408 0.906517 28.9288 12.1466 26.632 22.2317C24.2132 21.7335 21.7182 21.7335 19.2993 22.2317C17.0026 12.1466 12.9905 0.906517 6.48532 0.906517C5.54578 0.88596 4.61826 1.12061 3.80153 1.58547C2.98479 2.05033 2.30943 2.72799 1.84735 3.54631C-0.166533 6.87485 0.357234 12.4504 1.14288 16.541C2.23521 21.935 4.04613 27.1582 6.52722 32.0707C5.64171 33.8655 5.05607 35.7931 4.79355 37.7771C3.48166 38.9516 2.42012 40.3785 1.6724 41.9726ZM35.3266 26.6523C33.6696 25.1386 31.7486 23.942 29.6594 23.1221C32.2913 11.4866 36.086 4.04912 39.446 4.04912C39.8448 4.03251 40.2401 4.13016 40.5852 4.33058C40.9304 4.53101 41.2112 4.82587 41.3944 5.18046C43.6545 8.90445 41.7873 19.5526 37.4347 28.9359C36.797 28.1172 36.0918 27.3534 35.3266 26.6523ZM10.5917 26.6445C9.83097 27.346 9.13018 28.1099 8.49658 28.9281C4.14407 19.5526 2.27684 8.90445 4.5369 5.18046C4.72016 4.82587 5.0009 4.53101 5.34608 4.33058C5.69126 4.13016 6.08651 4.03251 6.48532 4.04912C9.84528 4.04912 13.64 11.4866 16.2588 23.1143C14.1696 23.9342 12.2487 25.1307 10.5917 26.6445Z" fill="#9547A5"/>
<path fill-rule="evenodd" clip-rule="evenodd" d="M42.3451 47.5218C42.3475 46.0398 42.0178 44.5761 41.3802 43.2382C40.7425 41.9004 39.8131 40.7224 38.6604 39.791C38.4985 39.6592 38.3643 39.4968 38.2654 39.313C38.1665 39.1291 38.105 38.9276 38.0842 38.7199C37.7142 34.9678 35.9619 31.4873 33.1681 28.9555C30.3742 26.4236 26.7386 25.0214 22.9683 25.0214C19.1979 25.0214 15.5623 26.4236 12.7685 28.9555C9.97469 31.4873 8.22238 34.9678 7.85235 38.7199C7.8323 38.9271 7.77127 39.1283 7.67282 39.3117C7.57436 39.4952 7.44043 39.6572 7.27882 39.7884C6.21488 40.6438 5.33831 41.709 4.70364 42.9176C4.06896 44.1263 3.68976 45.4526 3.58961 46.8141C3.48946 48.1756 3.67051 49.5432 4.1215 50.8317H41.7766C42.1502 49.7743 42.3445 48.6555 42.3451 47.5218ZM17.8104 42.6916C18.0982 42.2609 18.2518 41.7546 18.2518 41.2366C18.2518 40.5421 17.9758 39.876 17.4847 39.3848C16.9936 38.8937 16.3275 38.6178 15.6329 38.6178C15.115 38.6178 14.6086 38.7714 14.178 39.0591C13.7473 39.3469 13.4116 39.7559 13.2134 40.2344C13.0152 40.713 12.9634 41.2395 13.0644 41.7475C13.1654 42.2555 13.4149 42.7222 13.7811 43.0884C14.1474 43.4547 14.614 43.7041 15.122 43.8051C15.63 43.9062 16.1566 43.8543 16.6351 43.6561C17.1136 43.4579 17.5226 43.1222 17.8104 42.6916ZM28.8435 39.0591C29.2741 38.7714 29.7805 38.6178 30.2984 38.6178C30.993 38.6178 31.6591 38.8937 32.1502 39.3848C32.6413 39.876 32.9172 40.5421 32.9172 41.2366C32.9172 41.7546 32.7637 42.2609 32.4759 42.6916C32.1881 43.1222 31.7791 43.4579 31.3006 43.6561C30.8221 43.8543 30.2955 43.9062 29.7875 43.8051C29.2795 43.7041 28.8129 43.4547 28.4466 43.0884C28.0804 42.7222 27.8309 42.2555 27.7299 41.7475C27.6288 41.2395 27.6807 40.713 27.8789 40.2344C28.0771 39.7559 28.4128 39.3469 28.8435 39.0591Z" fill="#9547A5"/>
<path d="M8.49658 28.9281C9.13018 28.1099 9.83097 27.346 10.5917 26.6445C12.2487 25.1307 14.1696 23.9342 16.2588 23.1143C13.64 11.4866 9.84528 4.04912 6.48532 4.04912C6.08651 4.03251 5.69126 4.13016 5.34608 4.33058C5.0009 4.53101 4.72016 4.82587 4.5369 5.18046C2.27684 8.90445 4.14407 19.5526 8.49658 28.9281Z" fill="#9547A5"/>
<path d="M29.6594 23.1221C31.7486 23.942 33.6696 25.1386 35.3266 26.6523C36.0918 27.3534 36.797 28.1172 37.4347 28.9359C41.7873 19.5526 43.6545 8.90445 41.3944 5.18046C41.2112 4.82587 40.9304 4.53101 40.5852 4.33058C40.2401 4.13016 39.8448 4.03251 39.446 4.04912C36.086 4.04912 32.2913 11.4866 29.6594 23.1221Z" fill="#9547A5"/>
</svg>
